<?xml version="1.0" encoding="UTF-8"?>
<svg version="1.1" xmlns="http://www.w3.org/2000/svg" width="300" height="300">
<path d="M0 0 C1.20849609 -0.00386719 1.20849609 -0.00386719 2.44140625 -0.0078125 C4.4375 0.125 4.4375 0.125 5.4375 1.125 C8.6332451 1.68078176 11.75663285 2.0865388 14.99609375 2.26953125 C22.57354955 2.73170231 28.62985004 4.70672317 35.38671875 8.10546875 C37.82825191 9.31925952 40.31666528 10.40239202 42.8125 11.5 C47.01906275 13.40136637 50.70701513 15.42039847 54.4375 18.125 C55.4275 18.785 56.4175 19.445 57.4375 20.125 C57.4375 20.785 57.4375 21.445 57.4375 22.125 C58.076875 22.24875 58.71625 22.3725 59.375 22.5 C60.055625 22.70625 60.73625 22.9125 61.4375 23.125 C61.7675 23.785 62.0975 24.445 62.4375 25.125 C63.4275 25.455 64.4175 25.785 65.4375 26.125 C67.26171875 27.90234375 67.26171875 27.90234375 69.125 30.0625 C70.05892578 31.12791016 70.05892578 31.12791016 71.01171875 32.21484375 C72.4375 34.125 72.4375 34.125 72.4375 36.125 C73.4275 36.455 74.4175 36.785 75.4375 37.125 C79.4375 41.46785714 79.4375 41.46785714 79.4375 45.125 C80.0975 45.125 80.7575 45.125 81.4375 45.125 C81.870625 46.5790625 81.870625 46.5790625 82.3125 48.0625 C83.07964682 51.23164203 83.07964682 51.23164203 85.4375 52.125 C91.80756214 62.47635098 95.19236104 74.1097088 97.04296875 86.078125 C97.23644337 88.11077554 97.23644337 88.11077554 98.4375 89.125 C98.69288961 93.51469673 98.6227374 97.91626557 98.625 102.3125 C98.63724609 103.54548828 98.64949219 104.77847656 98.66210938 106.04882812 C98.66404297 107.24314453 98.66597656 108.43746094 98.66796875 109.66796875 C98.67207764 110.76133545 98.67618652 111.85470215 98.68041992 112.98120117 C98.4217224 116.32918911 97.59057682 118.98292656 96.4375 122.125 C96.14875 123.383125 95.86 124.64125 95.5625 125.9375 C94.42174191 130.60747843 92.54807378 134.81849835 90.4375 139.125 C90.128125 139.76824219 89.81875 140.41148437 89.5 141.07421875 C87.13137898 145.62394497 84.39024845 148.03154469 80.4375 151.125 C79.7775 152.115 79.1175 153.105 78.4375 154.125 C77.4475 154.455 76.4575 154.785 75.4375 155.125 C74.6125 155.970625 73.7875 156.81625 72.9375 157.6875 C70.4375 160.125 70.4375 160.125 67.4375 160.125 C67.27894531 160.65867188 67.12039062 161.19234375 66.95703125 161.7421875 C65.03696085 167.87368303 62.43515643 173.44959514 59.4375 179.125 C58.7775 179.125 58.1175 179.125 57.4375 179.125 C57.39625 179.7025 57.355 180.28 57.3125 180.875 C55.98296871 184.29379475 53.54083371 185.35166645 50.4375 187.125 C49.7775 187.125 49.1175 187.125 48.4375 187.125 C48.1075 187.785 47.7775 188.445 47.4375 189.125 C45.375 189.75 45.375 189.75 43.4375 190.125 C43.4375 190.785 43.4375 191.445 43.4375 192.125 C42.138125 192.2796875 42.138125 192.2796875 40.8125 192.4375 C37.44799977 192.93377996 37.44799977 192.93377996 34.875 194.625 C30.39538755 196.57973998 26.30873835 196.62995237 21.4609375 196.81640625 C18.54257314 197.11427548 16.96734938 197.75842958 14.4375 199.125 C12.765951 198.81708308 11.09944453 198.48113097 9.4375 198.125 C7.43400739 198.43665441 5.43423484 198.77263503 3.4375 199.125 C-0.66976144 199.25538925 -4.24830379 199.17212943 -8.3125 198.5625 C-11.39723449 197.93626383 -11.39723449 197.93626383 -13.6875 198.6875 C-15.5625 199.125 -15.5625 199.125 -17.8203125 198.17578125 C-20.80506469 197.03205142 -23.13003256 196.85944994 -26.3125 196.75 C-31.42564073 196.415849 -35.19963879 195.33163687 -39.72265625 192.96484375 C-41.68027452 191.9173712 -41.68027452 191.9173712 -44.5625 192.125 C-44.5625 191.465 -44.5625 190.805 -44.5625 190.125 C-46.2125 189.795 -47.8625 189.465 -49.5625 189.125 C-49.5625 188.465 -49.5625 187.805 -49.5625 187.125 C-50.284375 186.898125 -51.00625 186.67125 -51.75 186.4375 C-59.89197997 182.63790935 -63.60220727 174.47912998 -66.69921875 166.52734375 C-67.5625 164.125 -67.5625 164.125 -68.5 160.6875 C-69.85703678 157.4146466 -71.47383911 156.70892866 -74.5625 155.125 C-75.0575 154.135 -75.0575 154.135 -75.5625 153.125 C-76.119375 152.856875 -76.67625 152.58875 -77.25 152.3125 C-81.83391385 149.95859829 -85.83596909 146.51774424 -88.5625 142.125 C-88.5625 141.465 -88.5625 140.805 -88.5625 140.125 C-89.2225 140.125 -89.8825 140.125 -90.5625 140.125 C-93.17838503 136.56739635 -94.05607808 133.48022853 -94.5625 129.125 C-95.2225 129.125 -95.8825 129.125 -96.5625 129.125 C-96.68625 127.908125 -96.81 126.69125 -96.9375 125.4375 C-97.2502321 122.85406095 -97.61926669 120.98809211 -98.625 118.5625 C-99.85679463 115.35983396 -99.6267176 112.528533 -99.5625 109.125 C-99.8925 108.465 -100.2225 107.805 -100.5625 107.125 C-101.25100988 97.5466125 -99.51940887 88.40660272 -97.28125 79.140625 C-96.83101006 77.2515748 -96.41626312 75.35331925 -96.0546875 73.4453125 C-95.34987909 70.1226443 -93.94971534 67.2195573 -92.5625 64.125 C-92.0675 62.92875 -91.5725 61.7325 -91.0625 60.5 C-89.74374878 57.53280975 -88.25129972 54.88849045 -86.5625 52.125 C-86.2325 51.135 -85.9025 50.145 -85.5625 49.125 C-84.9025 49.125 -84.2425 49.125 -83.5625 49.125 C-83.315 48.41988281 -83.0675 47.71476562 -82.8125 46.98828125 C-81.40146341 43.75612557 -79.6374274 41.16171098 -77.5625 38.3125 C-76.86125 37.33667969 -76.16 36.36085937 -75.4375 35.35546875 C-74.81875 34.61941406 -74.2 33.88335937 -73.5625 33.125 C-72.9025 33.125 -72.2425 33.125 -71.5625 33.125 C-71.2325 32.135 -70.9025 31.145 -70.5625 30.125 C-68.6875 27.9375 -68.6875 27.9375 -66.5625 26.125 C-65.5725 26.125 -64.5825 26.125 -63.5625 26.125 C-63.2840625 25.2896875 -63.2840625 25.2896875 -63 24.4375 C-60.02038187 19.64420126 -54.36371067 16.88569613 -49.5625 14.125 C-49.005625 13.795 -48.44875 13.465 -47.875 13.125 C-42.38586062 9.90722864 -36.79150834 7.82099448 -30.75390625 5.8515625 C-29.01001918 5.27337534 -27.2827593 4.64509724 -25.5625 4 C-21.59218569 2.84199166 -17.66750235 2.51697071 -13.5625 2.125 C-8.84644288 1.5261356 -4.6935028 -0.01506742 0 0 Z " fill="#080504" transform="translate(150.5625,23.875)"/>
<path d="M0 0 C7.77148385 3.90051661 14.38082085 8.38036132 21 14 C21.99773437 14.76183594 21.99773437 14.76183594 23.015625 15.5390625 C29.72428256 20.85690081 36.32280559 28.20317915 40 36 C40.43581154 40.71147616 39.0612429 43.87751419 37 48 C35.44799742 65.09925652 36.5061912 78.33170499 46.875 92.375 C49.52691015 95.98536104 50.95341165 98.41387888 50.48828125 102.9375 C47.78109933 114.37263644 41.37989169 123.04693861 32 130 C29 131.4375 29 131.4375 27 132 C26.525625 130.845 26.05125 129.69 25.5625 128.5 C20.94003627 119.36820976 12.40838214 114.25630037 3 111 C-23.20828798 103.05362024 -58.77419612 101.15931237 -83.8125 113.79296875 C-90.55327498 117.51243209 -97.46635466 122.39906397 -100 130 C-108.36390755 128.71324499 -114.12201513 121.2968664 -119 115 C-120.75822839 112.08403107 -121.99578174 109.24894144 -123 106 C-123.21914062 105.33226562 -123.43828125 104.66453125 -123.6640625 103.9765625 C-124.41358407 100.76251239 -124.42467626 98.82243642 -122.890625 95.8515625 C-121.85542112 94.33077329 -120.78851983 92.83120591 -119.6953125 91.3515625 C-117.98211524 88.97519211 -116.59478165 86.60098486 -115.25 84 C-114.86328125 83.2575 -114.4765625 82.515 -114.078125 81.75 C-111.29681544 74.65564518 -110.6417044 67.62967725 -110.6875 60.0625 C-110.68834595 58.74644775 -110.68834595 58.74644775 -110.68920898 57.40380859 C-110.76824154 51.84673512 -111.47389073 47.13839668 -113.37109375 41.88671875 C-114.40801195 38.77596414 -114.17003467 37.05509053 -113 34 C-110.89596887 30.79415375 -108.49181685 27.91025402 -106 25 C-105.33742188 24.19175781 -104.67484375 23.38351563 -103.9921875 22.55078125 C-96.42410599 13.65619099 -87.32327062 6.47408297 -77 1 C-76.34 1 -75.68 1 -75 1 C-76.11925317 3.26003043 -77.26385515 5.50189838 -78.4375 7.734375 C-84.69054884 19.80275926 -87.01015131 30.80720994 -83.875 44.37109375 C-79.34505155 57.98116209 -70.64561563 68.82770123 -58.0390625 75.59375 C-45.22523625 81.52302693 -31.3287484 81.63143436 -18 77 C-14.00968568 74.67396281 -10.51826228 71.98051162 -7 69 C-6.14664063 68.35289063 -5.29328125 67.70578125 -4.4140625 67.0390625 C2.84860439 60.90457688 7.98797239 51.25911136 10 42 C11.04167287 28.22150881 10.64515726 16.34199416 2.3046875 4.91015625 C1 3 1 3 0 0 Z " fill="#F04135" transform="translate(187,43)"/>
<path d="M0 0 C0.73279678 -0.00191345 1.46559357 -0.0038269 2.22059631 -0.00579834 C3.76954492 -0.00715426 5.31850512 -0.00349935 6.86743164 0.00488281 C9.18468301 0.0154518 11.50113412 0.00504038 13.81835938 -0.0078125 C26.60621347 -0.02045699 39.8190199 0.00020049 51.28515625 6.265625 C52.21328125 6.72195312 53.14140625 7.17828125 54.09765625 7.6484375 C64.53177286 12.94874674 64.53177286 12.94874674 67.28515625 18.265625 C68.609519 27.21342038 67.63919117 34.87651047 62.28515625 42.265625 C57.3740758 48.18243204 50.43798978 50.89708496 43.28515625 53.265625 C42.12282471 53.65729858 42.12282471 53.65729858 40.93701172 54.05688477 C31.87566493 56.73784654 22.90573573 56.8240354 13.53417969 56.8215332 C10.81689033 56.82804891 8.10335775 56.88254855 5.38671875 56.93945312 C-3.98033551 57.03144719 -12.54173192 56.24854348 -21.55859375 53.60546875 C-22.76424988 53.25567711 -22.76424988 53.25567711 -23.9942627 52.89881897 C-32.06463723 50.27431254 -38.61214766 45.83983318 -42.71484375 38.265625 C-45.27773059 31.63779311 -45.73441224 25.29021104 -44.71484375 18.265625 C-41.40496653 11.42237403 -34.6490181 7.72401969 -27.71484375 5.265625 C-24.16107987 4.36445004 -20.61692978 3.60616801 -17.01171875 2.94140625 C-13.76455386 2.36586981 -13.76455386 2.36586981 -10.9909668 1.23999023 C-7.26523064 0.13190371 -3.84744788 -0.02265442 0 0 Z " fill="#F9DB80" transform="translate(138.71484375,155.734375)"/>
<path d="M0 0 C0.99451172 -0.02900391 1.98902344 -0.05800781 3.01367188 -0.08789062 C10.44615847 -0.15217694 13.75307008 0.99036541 19.1875 6.0625 C19.55875 6.475 19.93 6.8875 20.3125 7.3125 C20.126875 6.52875 19.94125 5.745 19.75 4.9375 C19.3125 2.3125 19.3125 2.3125 20.3125 0.3125 C31.08252549 0.2662035 41.85252738 0.23064447 52.62263203 0.20887566 C57.62337567 0.19842887 62.62405134 0.18425333 67.62475586 0.16162109 C72.44876462 0.13992465 77.27270792 0.12793812 82.0967617 0.12274551 C83.93920103 0.119044 85.7816367 0.11181608 87.62404823 0.10103989 C90.20037262 0.08656746 92.77642485 0.08452027 95.3527832 0.08544922 C96.50077141 0.07466339 96.50077141 0.07466339 97.67195129 0.06365967 C101.4365888 0.07839311 103.09808507 0.16955672 106.3125 2.3125 C106.3125 2.9725 106.3125 3.6325 106.3125 4.3125 C108.8156287 5.90307858 108.8156287 5.90307858 112.3125 6.3125 C114.23663022 5.10169742 114.23663022 5.10169742 116.1875 3.4375 C120.61830302 0.14842267 124.20401658 -0.3324434 129.5625 -0.375 C130.24812012 -0.39353027 130.93374023 -0.41206055 131.64013672 -0.43115234 C135.40096193 -0.34761925 137.13732831 0.16706502 140.05078125 2.5859375 C141.17033203 3.93558594 141.17033203 3.93558594 142.3125 5.3125 C143.00214844 6.03050781 143.69179687 6.74851563 144.40234375 7.48828125 C149.3125 13.16662262 149.3125 13.16662262 149.3125 16.49609375 C148.75 18.5625 148.75 18.5625 147.9921875 20.5390625 C147.1483503 22.40469191 147.1483503 22.40469191 147.375 24.9375 C147.28133393 28.4968106 146.30467695 30.35500178 144.3125 33.3125 C141.60172995 34.65056322 138.83256814 35.19126546 135.875 35.75 C135.11123047 35.92208984 134.34746094 36.09417969 133.56054688 36.27148438 C128.85455946 37.26674542 125.72204558 37.51727279 121.3125 35.3125 C121.3125 34.6525 121.3125 33.9925 121.3125 33.3125 C119.23696352 32.7590236 117.46884036 32.3125 115.3125 32.3125 C114.5390625 32.993125 114.5390625 32.993125 113.75 33.6875 C110.20559509 36.05043661 106.56084985 37.04036371 102.3125 37.3125 C99.25 35.9375 99.25 35.9375 97.3125 34.3125 C96.9825 35.3025 96.6525 36.2925 96.3125 37.3125 C94.18777424 37.36636629 92.06266348 37.40523071 89.9375 37.4375 C88.75414063 37.46070313 87.57078125 37.48390625 86.3515625 37.5078125 C83.3125 37.3125 83.3125 37.3125 81.3125 35.3125 C81.26675716 32.97961508 81.27425377 30.64551986 81.3125 28.3125 C81.00098712 25.97615343 80.67090222 23.64211443 80.3125 21.3125 C80.3125 20.3225 80.3125 19.3325 80.3125 18.3125 C77.6725 18.3125 75.0325 18.3125 72.3125 18.3125 C72.45383499 20.08369803 72.60073208 21.85445287 72.75 23.625 C72.83121094 24.61113281 72.91242188 25.59726562 72.99609375 26.61328125 C73.23062559 29.40625599 73.23062559 29.40625599 74.3125 32.3125 C73.375 35 73.375 35 72.3125 37.3125 C69.35362541 37.39319658 66.3969341 37.45284665 63.4375 37.5 C62.59574219 37.52513672 61.75398438 37.55027344 60.88671875 37.57617188 C60.08105469 37.58583984 59.27539062 37.59550781 58.4453125 37.60546875 C57.70168457 37.6211792 56.95805664 37.63688965 56.19189453 37.65307617 C55.26159424 37.48449097 55.26159424 37.48449097 54.3125 37.3125 C51.94675766 33.7638865 52.20384735 32.7360475 52.6875 28.625 C52.79835938 27.63113281 52.90921875 26.63726562 53.0234375 25.61328125 C53.11882812 24.85402344 53.21421875 24.09476562 53.3125 23.3125 C53.9725 23.3125 54.6325 23.3125 55.3125 23.3125 C54.3225 19.8475 54.3225 19.8475 53.3125 16.3125 C49.30995544 16.22068866 49.30995544 16.22068866 45.3125 16.3125 C44.8175 16.8075 44.8175 16.8075 44.3125 17.3125 C44.59719203 22.33749694 44.59719203 22.33749694 47.3125 26.3125 C47.91084554 27.83306618 48.44756656 29.37862088 48.9375 30.9375 C49.32808594 32.16339844 49.32808594 32.16339844 49.7265625 33.4140625 C49.91992188 34.04054688 50.11328125 34.66703125 50.3125 35.3125 C48.3125 37.3125 48.3125 37.3125 45.80981445 37.55541992 C44.7755835 37.55131104 43.74135254 37.54720215 42.67578125 37.54296875 C41.54076172 37.54103516 40.40574219 37.53910156 39.23632812 37.53710938 C38.04458984 37.52486328 36.85285156 37.51261719 35.625 37.5 C33.86639648 37.4990332 33.86639648 37.4990332 32.07226562 37.49804688 C26.3687505 37.46906233 20.93891209 37.20373607 15.3125 36.3125 C14.425625 36.51875 13.53875 36.725 12.625 36.9375 C10.3125 37.3125 10.3125 37.3125 8 35.875 C7.443125 35.359375 6.88625 34.84375 6.3125 34.3125 C5.6525 35.3025 4.9925 36.2925 4.3125 37.3125 C1.2734375 37.60546875 1.2734375 37.60546875 -2.3125 37.5 C-3.50101563 37.47292969 -4.68953125 37.44585937 -5.9140625 37.41796875 C-6.82929687 37.38316406 -7.74453125 37.34835937 -8.6875 37.3125 C-12.79822032 29.83011218 -11.84407721 20.61730724 -11.8125 12.3125 C-11.81636719 11.26449219 -11.82023438 10.21648437 -11.82421875 9.13671875 C-11.82292969 8.14285156 -11.82164063 7.14898437 -11.8203125 6.125 C-11.81918457 5.22394531 -11.81805664 4.32289063 -11.81689453 3.39453125 C-11.49053961 -1.85670421 -4.00445284 0.03818614 0 0 Z M17.3125 22.3125 C17.6425 23.3025 17.9725 24.2925 18.3125 25.3125 C18.6425 24.3225 18.9725 23.3325 19.3125 22.3125 C18.6525 22.3125 17.9925 22.3125 17.3125 22.3125 Z M19.3125 25.3125 C20.3125 27.3125 20.3125 27.3125 20.3125 27.3125 Z " fill="#0B0903" transform="translate(11.6875,241.6875)"/>
<path d="M0 0 C13.4345594 -0.41856416 22.44177276 3.22978765 32.51171875 12.19140625 C40.98830081 22.21858259 43.38382505 33.16381536 42.72509766 45.99951172 C41.58823915 57.67767608 34.68904267 66.04682379 25.98828125 73.29296875 C15.81531977 80.89921379 3.87189741 81.74740034 -8.48828125 80.19140625 C-13.01575904 78.81899928 -16.62579909 76.90055004 -20.48828125 74.19140625 C-21.24496094 73.66160156 -22.00164062 73.13179688 -22.78125 72.5859375 C-29.84197603 67.00889123 -36.46889223 57.24428771 -37.77368164 48.21679688 C-37.89005819 46.11548383 -37.90488413 44.04545998 -37.86328125 41.94140625 C-37.8480542 40.82378906 -37.8480542 40.82378906 -37.83251953 39.68359375 C-37.51391252 28.26313777 -34.36748327 19.31013132 -26.37890625 10.99609375 C-18.09584701 3.2557177 -11.19233051 0.61413684 0 0 Z " fill="#CDD6DA" transform="translate(147.48828125,34.80859375)"/>
<path d="M0 0 C3.58331625 -0.02907084 7.16660208 -0.04682263 10.75 -0.0625 C11.76578125 -0.07087891 12.7815625 -0.07925781 13.828125 -0.08789062 C14.8078125 -0.09111328 15.7875 -0.09433594 16.796875 -0.09765625 C17.69760742 -0.10289307 18.59833984 -0.10812988 19.52636719 -0.11352539 C22 0 22 0 24.26269531 0.56860352 C24.83600586 0.71096436 25.40931641 0.8533252 26 1 C26.33 0.67 26.66 0.34 27 0 C29.28812814 -0.15215174 31.58199128 -0.22186492 33.875 -0.25 C35.75832031 -0.28867188 35.75832031 -0.28867188 37.6796875 -0.328125 C41 0 41 0 42.9296875 1.109375 C44.526865 3.93066664 44.32237841 6.28639881 44.25 9.5 C44.23453125 10.6446875 44.2190625 11.789375 44.203125 12.96875 C44 16 44 16 43 19 C47.12246913 19.54032362 50.89728019 19.76598094 55 19 C57.89471396 16.44584062 59.35759185 13.45509941 61 10 C65.5242189 1.83774941 65.5242189 1.83774941 68 0 C70.91796875 -0.29296875 70.91796875 -0.29296875 74.1875 -0.1875 C75.27417969 -0.16042969 76.36085938 -0.13335937 77.48046875 -0.10546875 C78.72763672 -0.05326172 78.72763672 -0.05326172 80 0 C81.4606285 2.64738916 82 3.89448334 82 7 C82.60328125 6.4946875 83.2065625 5.989375 83.828125 5.46875 C84.62734375 4.8190625 85.4265625 4.169375 86.25 3.5 C87.03890625 2.8503125 87.8278125 2.200625 88.640625 1.53125 C91 0 91 0 95 0 C95 0.66 95 1.32 95 2 C97.64738916 3.4606285 98.89448334 4 102 4 C102.433125 3.34 102.86625 2.68 103.3125 2 C103.869375 1.34 104.42625 0.68 105 0 C108.1875 -0.25 108.1875 -0.25 111 0 C111 0.66 111 1.32 111 2 C111.99 2 112.98 2 114 2 C114 2.66 114 3.32 114 4 C114.639375 4.2475 115.27875 4.495 115.9375 4.75 C118 6 118 6 119 10 C116.03 12.64 113.06 15.28 110 18 C110.433125 18.79664063 110.86625 19.59328125 111.3125 20.4140625 C111.869375 21.47367187 112.42625 22.53328125 113 23.625 C113.556875 24.66914063 114.11375 25.71328125 114.6875 26.7890625 C116.0578255 30.14146595 116.2580505 32.41954936 116 36 C112.9166866 36.02911321 109.83340875 36.04683682 106.75 36.0625 C105.87730469 36.07087891 105.00460937 36.07925781 104.10546875 36.08789062 C103.26113281 36.09111328 102.41679687 36.09433594 101.546875 36.09765625 C100.77182617 36.10289307 99.99677734 36.10812988 99.19824219 36.11352539 C97 36 97 36 94.88378906 35.47045898 C92.09675356 34.77442251 89.81381296 35.46909189 87 36 C84.00361324 36.36780525 81.00250427 36.68640511 78 37 C75 32.375 75 32.375 75 29 C72.69 29 70.38 29 68 29 C67.34 31.31 66.68 33.62 66 36 C62.14115045 37.39266751 58.91714363 36.66955098 54.9375 36 C49.9014654 35.04909526 49.9014654 35.04909526 45 36 C43.66474283 36.07973476 42.32587917 36.10771338 40.98828125 36.09765625 C39.85229492 36.09282227 39.85229492 36.09282227 38.69335938 36.08789062 C37.51483398 36.07532227 37.51483398 36.07532227 36.3125 36.0625 C35.11657227 36.05573242 35.11657227 36.05573242 33.89648438 36.04882812 C31.93095743 36.0370585 29.96546915 36.01912348 28 36 C27.05685873 32.58389775 26.91934883 29.54865136 27 26 C26.175 26.804375 25.35 27.60875 24.5 28.4375 C20.81887726 31.55500586 17.73646089 31.75501064 13 32 C12.505 34.475 12.505 34.475 12 37 C9.87527424 37.05386629 7.75016348 37.09273071 5.625 37.125 C4.44164062 37.14820313 3.25828125 37.17140625 2.0390625 37.1953125 C-1 37 -1 37 -3 35 C-2.79356307 33.13355479 -2.57395384 31.26763629 -2.28857422 29.41162109 C-1.63414322 23.9425268 -2.00657443 18.36643453 -2.12695312 12.86914062 C-2.13791016 11.92876953 -2.14886719 10.98839844 -2.16015625 10.01953125 C-2.17699463 9.17495361 -2.19383301 8.33037598 -2.21118164 7.46020508 C-1.9714562 4.66747293 -1.15104183 2.54194317 0 0 Z M85 13 C85.33 13.99 85.66 14.98 86 16 C86.66 16 87.32 16 88 16 C88.0825 16.825 88.165 17.65 88.25 18.5 C89.16447269 22.76753921 90.92223178 26.19236894 93 30 C93.66 30 94.32 30 95 30 C95.48384339 26.2233335 95.6908253 22.75829587 95 19 C92.73265807 16.26158931 90.20156228 14.52363506 87 13 C86.34 13 85.68 13 85 13 Z " fill="#030805" transform="translate(181,242)"/>
<path d="M0 0 C4.04342413 2.67425314 6.20249417 5.5090886 8 10 C8.52770371 15.56314153 8.48581958 22.34521978 5 27 C2.35546875 28.046875 2.35546875 28.046875 -0.8125 28.75 C-1.85019531 28.99234375 -2.88789063 29.2346875 -3.95703125 29.484375 C-8.62668526 30.27563858 -10.86689164 30.61013527 -15.1484375 28.3046875 C-19.72908411 25.03963311 -23.48255462 22.12082993 -24.87109375 16.4296875 C-24.79367999 11.56810362 -24.28431236 7.75975491 -21.375 3.7734375 C-15.30908274 -1.07470092 -7.37797246 -1.82289483 0 0 Z " fill="#F4C900" transform="translate(148,245)"/>
<path d="M0 0 C2.23939735 1.89529483 2.70419577 2.95335149 3.2734375 5.86328125 C3.52813378 13.25926935 3.52813378 13.25926935 1.2109375 16.0234375 C0.72882812 16.40757812 0.24671875 16.79171875 -0.25 17.1875 C1.16154766 20.59874018 2.81221223 22.0331223 5.75 24.1875 C5.75 24.8475 5.75 25.5075 5.75 26.1875 C0.57343499 29.31751605 0.57343499 29.31751605 -2.625 28.8125 C-6.55372606 26.38043149 -9.87047087 23.32383721 -13.25 20.1875 C-12.92 23.1575 -12.59 26.1275 -12.25 29.1875 C-14.89 29.1875 -17.53 29.1875 -20.25 29.1875 C-22.02203196 19.06160311 -22.48950618 9.4330423 -22.25 -0.8125 C-6.50083199 -3.66747548 -6.50083199 -3.66747548 0 0 Z " fill="#0095D0" transform="translate(25.25,246.8125)"/>
<path d="M0 0 C2.23939735 1.89529483 2.70419577 2.95335149 3.2734375 5.86328125 C3.5301076 13.31658622 3.5301076 13.31658622 1.2734375 15.8359375 C0.77070312 16.28195312 0.26796875 16.72796875 -0.25 17.1875 C-0.58 18.1775 -0.91 19.1675 -1.25 20.1875 C-0.63125 20.435 -0.0125 20.6825 0.625 20.9375 C3.10068687 22.39378639 3.70125002 23.56562506 4.75 26.1875 C2.5 27.8125 2.5 27.8125 -0.25 29.1875 C-3.60573657 27.95706326 -6.22134123 25.76908196 -9 23.5625 C-9.79921875 22.93085938 -10.5984375 22.29921875 -11.421875 21.6484375 C-12.02515625 21.16632813 -12.6284375 20.68421875 -13.25 20.1875 C-12.92 23.1575 -12.59 26.1275 -12.25 29.1875 C-14.89 29.1875 -17.53 29.1875 -20.25 29.1875 C-20.59064639 25.87571046 -20.92114622 22.56297963 -21.25 19.25 C-21.34539062 18.32380859 -21.44078125 17.39761719 -21.5390625 16.44335938 C-22.10741047 10.65838893 -22.34538785 5.00019724 -22.25 -0.8125 C-15.26913115 -2.36380419 -6.48099227 -3.65628281 0 0 Z " fill="#41A932" transform="translate(117.25,246.8125)"/>
<path d="M0 0 C3.01125 -0.0825 6.0225 -0.165 9.125 -0.25 C10.06230957 -0.28641602 10.99961914 -0.32283203 11.96533203 -0.36035156 C16.10255193 -0.41498578 18.72636518 -0.12198179 22.56640625 1.58984375 C25 4 25 4 25.83203125 7.20703125 C25.77272251 18.15542551 25.77272251 18.15542551 22.125 22.375 C18.27930492 25.52578509 14.7666126 25.59845606 9.94140625 25.24609375 C9.30074219 25.16488281 8.66007813 25.08367187 8 25 C8 26.98 8 28.96 8 31 C5.03 31 2.06 31 -1 31 C-0.67 20.77 -0.34 10.54 0 0 Z " fill="#41A832" transform="translate(183,245)"/>
<path d="M0 0 C1.23556641 0.01740234 1.23556641 0.01740234 2.49609375 0.03515625 C3.32238281 0.04417969 4.14867187 0.05320313 5 0.0625 C5.63808594 0.07410156 6.27617187 0.08570313 6.93359375 0.09765625 C8.64989367 3.74213087 10.35866521 7.39002894 12.06054688 11.04125977 C12.6405193 12.28278351 13.22253751 13.52335372 13.80664062 14.76293945 C14.64600641 16.54516426 15.47741008 18.3311321 16.30859375 20.1171875 C17.06269531 21.72750854 17.06269531 21.72750854 17.83203125 23.37036133 C18.93359375 26.09765625 18.93359375 26.09765625 18.93359375 29.09765625 C16.52813737 30.30038444 14.98362422 30.19837097 12.30859375 30.16015625 C11.08269531 30.14662109 11.08269531 30.14662109 9.83203125 30.1328125 C9.20554687 30.12121094 8.5790625 30.10960937 7.93359375 30.09765625 C7.93359375 27.78765625 7.93359375 25.47765625 7.93359375 23.09765625 C3.31359375 23.09765625 -1.30640625 23.09765625 -6.06640625 23.09765625 C-6.39640625 25.07765625 -6.72640625 27.05765625 -7.06640625 29.09765625 C-8.06640625 30.09765625 -8.06640625 30.09765625 -11.62890625 30.16015625 C-12.76328125 30.13953125 -13.89765625 30.11890625 -15.06640625 30.09765625 C-15.93640875 22.32258125 -13.11680357 17.69197898 -9.12890625 11.16015625 C-8.56494141 10.20302734 -8.00097656 9.24589844 -7.41992188 8.25976562 C-2.59778383 0.12276861 -2.59778383 0.12276861 0 0 Z " fill="#0093CE" transform="translate(252.06640625,244.90234375)"/>
<path d="M0 0 C10.23 0 20.46 0 31 0 C31 3.63 31 7.26 31 11 C25.555 10.505 25.555 10.505 20 10 C20.2165625 11.18078125 20.433125 12.3615625 20.65625 13.578125 C20.9376823 15.13538373 21.21892223 16.69267724 21.5 18.25 C21.64308594 19.02730469 21.78617188 19.80460937 21.93359375 20.60546875 C22.06894531 21.35957031 22.20429687 22.11367188 22.34375 22.890625 C22.46943359 23.58188477 22.59511719 24.27314453 22.72460938 24.98535156 C23 27 23 27 23 31 C18.38 31 13.76 31 9 31 C9.59762104 23.65779862 10.24567688 16.32771033 11 9 C7.37 9 3.74 9 0 9 C0 6.03 0 3.06 0 0 Z " fill="#E0210F" transform="translate(59,245)"/>
<path d="M0 0 C6.6 0 13.2 0 20 0 C19.67 2.64 19.34 5.28 19 8 C16.59454362 9.20272819 15.05003047 9.10071472 12.375 9.0625 C11.14910156 9.04896484 11.14910156 9.04896484 9.8984375 9.03515625 C8.95871094 9.01775391 8.95871094 9.01775391 8 9 C8 10.65 8 12.3 8 14 C10.97 14 13.94 14 17 14 C17 15.98 17 17.96 17 20 C14.36 20 11.72 20 9 20 C9 21.65 9 23.3 9 25 C12.96 25 16.92 25 21 25 C21.66 27.31 22.32 29.62 23 32 C15.41 32 7.82 32 0 32 C-3.46496815 6.92993631 -3.46496815 6.92993631 0 0 Z " fill="#EDC300" transform="translate(35,244)"/>
<path d="M0 0 C4.30872286 1.43624095 5.54602565 2.54602565 9 6 C6.03 8.64 3.06 11.28 0 14 C1.72201316 19.45304168 3.85276265 24.7034812 6 30 C1.05 30 -3.9 30 -9 30 C-8.95875 27.710625 -8.9175 25.42125 -8.875 23.0625 C-8.9894516 18.45644793 -9.43452631 15.7398361 -12.29296875 12 C-14.77396781 9.81644088 -17.25511624 7.83822524 -20 6 C-18.35 4.35 -16.7 2.7 -15 1 C-12.72707059 2.01889939 -11.16975439 2.80902631 -9.5 4.6875 C-8.0891725 6.21264211 -8.0891725 6.21264211 -6.0625 6 C-3.19935907 4.61181046 -1.83184495 2.55149832 0 0 Z " fill="#40A631" transform="translate(288,245)"/>
<path d="M0 0 C3.3 0 6.6 0 10 0 C10 6.6 10 13.2 10 20 C14.29 20 18.58 20 23 20 C23.33 22.64 23.66 25.28 24 28 C16.27279225 29.23107719 8.8316181 30.2700558 1 30 C-0.13955862 23.67410373 -0.1142637 17.47721662 -0.0625 11.0625 C-0.05798828 9.99708984 -0.05347656 8.93167969 -0.04882812 7.83398438 C-0.03711802 5.22263178 -0.01918512 2.61130837 0 0 Z " fill="#ECC200" transform="translate(211,245)"/>
<path d="M0 0 C3.58331625 -0.02907084 7.16660208 -0.04682263 10.75 -0.0625 C11.76578125 -0.07087891 12.7815625 -0.07925781 13.828125 -0.08789062 C14.8078125 -0.09111328 15.7875 -0.09433594 16.796875 -0.09765625 C17.69760742 -0.10289307 18.59833984 -0.10812988 19.52636719 -0.11352539 C22 0 22 0 24.26269531 0.56860352 C24.83600586 0.71096436 25.40931641 0.8533252 26 1 C26.33 0.67 26.66 0.34 27 0 C29.28812814 -0.15215174 31.58199128 -0.22186492 33.875 -0.25 C35.75832031 -0.28867188 35.75832031 -0.28867188 37.6796875 -0.328125 C41 0 41 0 42.9296875 1.109375 C44.526865 3.93066664 44.32237841 6.28639881 44.25 9.5 C44.23453125 10.6446875 44.2190625 11.789375 44.203125 12.96875 C44 16 44 16 43 19 C44.258125 18.938125 45.51625 18.87625 46.8125 18.8125 C50.70200387 18.81939628 50.70200387 18.81939628 53.0625 20.25 C54 22 54 22 53.6875 24.1875 C53.460625 24.785625 53.23375 25.38375 53 26 C53 25.01 53 24.02 53 23 C48.71 23 44.42 23 40 23 C40 16.4 40 9.8 40 3 C36.7 3 33.4 3 30 3 C30.04125 3.94875 30.0825 4.8975 30.125 5.875 C30.14484508 10.70727658 29.05774196 15.30627004 28 20 C27.67 20 27.34 20 27 20 C27 15.71 27 11.42 27 7 C25.68 6.34 24.36 5.68 23 5 C22.34 4.67 21.68 4.34 21 4 C19.5534758 3.84932786 18.1012066 3.75138964 16.6484375 3.68359375 C15.88192871 3.64548584 15.11541992 3.60737793 14.32568359 3.56811523 C13.35195801 3.52501221 12.37823242 3.48190918 11.375 3.4375 C8.28125 3.293125 5.1875 3.14875 2 3 C2 11.58 2 20.16 2 29 C1.01 29 0.02 29 -1 29 C-2.92191176 25.15617648 -2.18480197 20.41531829 -2.1875 16.1875 C-2.19974609 15.18912109 -2.21199219 14.19074219 -2.22460938 13.16210938 C-2.22654297 12.19466797 -2.22847656 11.22722656 -2.23046875 10.23046875 C-2.23457764 9.34770264 -2.23868652 8.46493652 -2.24291992 7.55541992 C-1.97437804 4.73046733 -1.16717379 2.57344906 0 0 Z " fill="#0B1002" transform="translate(181,242)"/>
<path d="M0 0 C2.5625 0.1875 2.5625 0.1875 4.5625 2.1875 C4.82128906 4.953125 4.82128906 4.953125 4.828125 8.4375 C4.83070313 9.6853125 4.83328125 10.933125 4.8359375 12.21875 C4.82820312 13.5284375 4.82046875 14.838125 4.8125 16.1875 C4.82023438 17.4971875 4.82796875 18.806875 4.8359375 20.15625 C4.83335937 21.4040625 4.83078125 22.651875 4.828125 23.9375 C4.82586914 25.08734375 4.82361328 26.2371875 4.82128906 27.421875 C4.5625 30.1875 4.5625 30.1875 2.5625 32.1875 C0 32.375 0 32.375 -2.4375 32.1875 C-4.32069268 30.30430732 -3.56804285 27.06819863 -3.5703125 24.5625 C-3.57126923 23.90040527 -3.57222595 23.23831055 -3.57321167 22.55615234 C-3.57389326 21.15397039 -3.57204042 19.7517853 -3.56787109 18.34960938 C-3.56252246 16.19654287 -3.5678167 14.04368498 -3.57421875 11.890625 C-3.57355796 10.53124954 -3.57227679 9.1718742 -3.5703125 7.8125 C-3.56918457 6.56726563 -3.56805664 5.32203125 -3.56689453 4.0390625 C-3.39546709 0.26118978 -3.39546709 0.26118978 0 0 Z " fill="#110F09" transform="translate(129.4375,163.8125)"/>
<path d="M0 0 C4.55555556 0.55555556 4.55555556 0.55555556 6 2 C6.2541555 6.64015325 6.18522798 11.29121306 6.1875 15.9375 C6.19974609 17.25169922 6.21199219 18.56589844 6.22460938 19.91992188 C6.22750977 21.7984082 6.22750977 21.7984082 6.23046875 23.71484375 C6.23457764 24.87105225 6.23868652 26.02726074 6.24291992 27.21850586 C6 30 6 30 4 32 C-0.55555556 31.44444444 -0.55555556 31.44444444 -2 30 C-2.2541555 25.35984675 -2.18522798 20.70878694 -2.1875 16.0625 C-2.19974609 14.74830078 -2.21199219 13.43410156 -2.22460938 12.08007812 C-2.22750977 10.2015918 -2.22750977 10.2015918 -2.23046875 8.28515625 C-2.23457764 7.12894775 -2.23868652 5.97273926 -2.24291992 4.78149414 C-2 2 -2 2 0 0 Z " fill="#0D0B07" transform="translate(168,164)"/>
<path d="M0 0 C0.66 0.33 1.32 0.66 2 1 C3.32751231 26.75373883 3.32751231 26.75373883 -4.66796875 35.91015625 C-5.32732422 36.44962891 -5.32732422 36.44962891 -6 37 C-6.38364425 29.7533864 -5.84939317 22.82935822 -4.6875 15.6875 C-4.51093872 14.55948975 -4.51093872 14.55948975 -4.33081055 13.40869141 C-3.49260229 8.55534224 -2.10137315 4.45585286 0 0 Z " fill="#BAC2C6" transform="translate(67,93)"/>
<path d="M0 0 C0.66 0 1.32 0 2 0 C6.40188077 12.24406641 8.37287333 22.97014864 8 36 C4.80577451 33.0549063 3.58056631 30.05449619 2 26 C1.64292969 25.14792969 1.28585938 24.29585937 0.91796875 23.41796875 C-0.32942074 18.77343342 -0.2137081 14.40841353 -0.125 9.625 C-0.11597656 8.69816406 -0.10695312 7.77132812 -0.09765625 6.81640625 C-0.07422937 4.54399923 -0.04142748 2.2721382 0 0 Z " fill="#B6BEC2" transform="translate(231,93)"/>
<path d="M0 0 C2.33294775 -0.04241723 4.66702567 -0.04092937 7 0 C8 1 8 1 8.25 3.9375 C8.1675 4.948125 8.085 5.95875 8 7 C5 9 5 9 2.4375 8.875 C0 8 0 8 -1.4375 6.1875 C-2 4 -2 4 -1.125 1.75 C-0.75375 1.1725 -0.3825 0.595 0 0 Z " fill="#181300" transform="translate(137,255)"/>
<path d="M0 0 C0.66 0.33 1.32 0.66 2 1 C-4.27 7.27 -10.54 13.54 -17 20 C-17.66 19.67 -18.32 19.34 -19 19 C-16.7765502 16.57801986 -14.54524231 14.16341377 -12.3125 11.75 C-11.68666016 11.06808594 -11.06082031 10.38617188 -10.41601562 9.68359375 C-7.13335522 6.14313278 -3.89372368 2.8886516 0 0 Z " fill="#C8372E" transform="translate(97,52)"/>
<path d="M0 0 C2.97 0.33 5.94 0.66 9 1 C7 5 7 5 5 7 C2.375 7.125 2.375 7.125 0 7 C0 4.69 0 2.38 0 0 Z " fill="#071405" transform="translate(192,253)"/>
<path d="M0 0 C1.98 0 3.96 0 6 0 C6.33 1.98 6.66 3.96 7 6 C4.03 6 1.06 6 -2 6 C-1.34 4.02 -0.68 2.04 0 0 Z " fill="#00131A" transform="translate(251,255)"/>
<path d="M0 0 C2.96175123 0.61277612 4.38058783 1.25372522 7 3 C6.34 4.65 5.68 6.3 5 8 C3.35 8 1.7 8 0 8 C0 5.36 0 2.72 0 0 Z " fill="#061004" transform="translate(104,252)"/>
<path d="M0 0 C1.98 0.66 3.96 1.32 6 2 C6 6 6 6 5 8 C3.35 8 1.7 8 0 8 C0 5.36 0 2.72 0 0 Z " fill="#000C11" transform="translate(12,252)"/>
<path d="M0 0 C0.66 0.33 1.32 0.66 2 1 C-2.62 5.62 -7.24 10.24 -12 15 C-12 11.11566834 -10.82920314 10.32394504 -8.25 7.5 C-7.55390625 6.7265625 -6.8578125 5.953125 -6.140625 5.15625 C-4.19891408 3.20036601 -2.25069252 1.58156772 0 0 Z " fill="#ACB3B7" transform="translate(128,40)"/>
</svg>
